# MagicaVoxel @ Ephtracy

# group
o 

# material
mtllib Turtle.mtl
usemtl palette

# normals
vn -1 0 0
vn 1 0 0
vn 0 0 1
vn 0 0 -1
vn 0 -1 0
vn 0 1 0

# texcoords
vt 0.310547 0.5
vt 0.583984 0.5
vt 0.587891 0.5
vt 0.591797 0.5
vt 0.650391 0.5
vt 0.994141 0.5

# verts
v -0.8 0 0.5
v -0.8 0 0.3
v -0.8 0 -0.1
v -0.8 0 -0.3
v -0.8 0.1 0.5
v -0.8 0.1 0.3
v -0.8 0.1 -0.1
v -0.8 0.1 -0.3
v -0.7 0.1 0.3
v -0.7 0.1 -0.1
v -0.7 0.2 0.3
v -0.7 0.2 -0.1
v -0.6 0 0.3
v -0.6 0 0.2
v -0.6 0 0
v -0.6 0 -0.1
v -0.6 0.1 0.4
v -0.6 0.1 0.3
v -0.6 0.1 0.2
v -0.6 0.1 0
v -0.6 0.1 -0.1
v -0.6 0.1 -0.2
v -0.6 0.2 0.4
v -0.6 0.2 0.3
v -0.6 0.2 -0.1
v -0.6 0.2 -0.2
v -0.6 0.3 0.3
v -0.6 0.3 -0.1
v -0.5 0.1 0.5
v -0.5 0.1 0.4
v -0.5 0.1 -0.2
v -0.5 0.1 -0.3
v -0.5 0.2 0.5
v -0.5 0.2 0.4
v -0.5 0.2 0.3
v -0.5 0.2 -0.1
v -0.5 0.2 -0.2
v -0.5 0.2 -0.3
v -0.5 0.3 0.4
v -0.5 0.3 0.3
v -0.5 0.3 -0.1
v -0.5 0.3 -0.2
v -0.5 0.4 0.3
v -0.5 0.4 -0.1
v -0.4 0 0.5
v -0.4 0 0.4
v -0.4 0 -0.2
v -0.4 0 -0.3
v -0.4 0.1 0.6
v -0.4 0.1 0.5
v -0.4 0.1 0.4
v -0.4 0.1 -0.2
v -0.4 0.1 -0.3
v -0.4 0.1 -0.4
v -0.4 0.2 0.6
v -0.4 0.2 0.5
v -0.4 0.2 0.4
v -0.4 0.2 -0.2
v -0.4 0.2 -0.3
v -0.4 0.2 -0.4
v -0.4 0.3 0.5
v -0.4 0.3 0.4
v -0.4 0.3 0.3
v -0.4 0.3 -0.1
v -0.4 0.3 -0.2
v -0.4 0.3 -0.3
v -0.4 0.4 0.4
v -0.4 0.4 0.3
v -0.4 0.4 -0.1
v -0.4 0.4 -0.2
v 0.2 0 0.6
v 0.2 0 0.4
v 0.2 0 -0.2
v 0.2 0 -0.4
v 0.2 0.1 0.6
v 0.2 0.1 0.5
v 0.2 0.1 0.4
v 0.2 0.1 -0.2
v 0.2 0.1 -0.3
v 0.2 0.1 -0.4
v 0.3 0.4 0.2
v 0.3 0.4 0
v 0.3 0.8 0.2
v 0.3 0.8 0
v 0.4 0.4 0.3
v 0.4 0.4 0.2
v 0.4 0.4 0
v 0.4 0.4 -0.1
v 0.4 0.8 0.3
v 0.4 0.8 0.2
v 0.4 0.8 0
v 0.4 0.8 -0.1
v 0.4 0.9 0.2
v 0.4 0.9 0
v 0.5 0.8 0.3
v 0.5 0.8 0.2
v 0.5 0.8 0
v 0.5 0.8 -0.1
v 0.5 0.9 0.3
v 0.5 0.9 0.2
v 0.5 0.9 0
v 0.5 0.9 -0.1
v -0.5 0 0.5
v -0.5 0 0.4
v -0.5 0 -0.2
v -0.5 0 -0.3
v -0.5 0.1 0.5
v -0.5 0.1 0.4
v -0.5 0.1 -0.2
v -0.5 0.1 -0.3
v 0.1 0 0.5
v 0.1 0 0.4
v 0.1 0 -0.2
v 0.1 0 -0.3
v 0.1 0.1 0.6
v 0.1 0.1 0.5
v 0.1 0.1 0.4
v 0.1 0.1 -0.2
v 0.1 0.1 -0.3
v 0.1 0.1 -0.4
v 0.1 0.2 0.6
v 0.1 0.2 0.5
v 0.1 0.2 0.4
v 0.1 0.2 -0.2
v 0.1 0.2 -0.3
v 0.1 0.2 -0.4
v 0.1 0.3 0.5
v 0.1 0.3 0.4
v 0.1 0.3 0.3
v 0.1 0.3 -0.1
v 0.1 0.3 -0.2
v 0.1 0.3 -0.3
v 0.1 0.4 0.4
v 0.1 0.4 0.3
v 0.1 0.4 -0.1
v 0.1 0.4 -0.2
v 0.2 0.1 0.5
v 0.2 0.1 0.4
v 0.2 0.1 -0.2
v 0.2 0.1 -0.3
v 0.2 0.2 0.5
v 0.2 0.2 0.4
v 0.2 0.2 0.3
v 0.2 0.2 -0.1
v 0.2 0.2 -0.2
v 0.2 0.2 -0.3
v 0.2 0.3 0.4
v 0.2 0.3 0.3
v 0.2 0.3 0.2
v 0.2 0.3 0
v 0.2 0.3 -0.1
v 0.2 0.3 -0.2
v 0.2 0.4 0.3
v 0.2 0.4 0.2
v 0.2 0.4 0
v 0.2 0.4 -0.1
v 0.3 0 0.4
v 0.3 0 0.3
v 0.3 0 -0.1
v 0.3 0 -0.2
v 0.3 0.1 0.4
v 0.3 0.1 0.3
v 0.3 0.1 0.2
v 0.3 0.1 0
v 0.3 0.1 -0.1
v 0.3 0.1 -0.2
v 0.3 0.2 0.4
v 0.3 0.2 0.3
v 0.3 0.2 -0.1
v 0.3 0.2 -0.2
v 0.3 0.3 0.3
v 0.3 0.3 0.2
v 0.3 0.3 0
v 0.3 0.3 -0.1
v 0.4 0.1 0.2
v 0.4 0.1 0
v 0.4 0.2 0.2
v 0.4 0.2 0
v 0.5 0 0.6
v 0.5 0 0.4
v 0.5 0 -0.2
v 0.5 0 -0.4
v 0.5 0.1 0.6
v 0.5 0.1 0.4
v 0.5 0.1 -0.2
v 0.5 0.1 -0.4
v 0.5 0.2 0.2
v 0.5 0.2 0
v 0.5 0.3 0.2
v 0.5 0.3 0
v 0.6 0.3 0.2
v 0.6 0.3 0
v 0.6 0.4 0.2
v 0.6 0.4 0
v 0.6 0.6 0.3
v 0.6 0.6 0.2
v 0.6 0.6 0
v 0.6 0.6 -0.1
v 0.6 0.7 0.2
v 0.6 0.7 0
v 0.6 0.8 0.3
v 0.6 0.8 0.2
v 0.6 0.8 0
v 0.6 0.8 -0.1
v 0.6 0.9 0.3
v 0.6 0.9 -0.1
v 0.7 0.4 0.3
v 0.7 0.4 0.2
v 0.7 0.4 0
v 0.7 0.4 -0.1
v 0.7 0.5 0.2
v 0.7 0.5 0
v 0.7 0.6 0.3
v 0.7 0.6 0.2
v 0.7 0.6 0
v 0.7 0.6 -0.1
v 0.8 0.5 0.2
v 0.8 0.5 0
v 0.8 0.7 0.2
v 0.8 0.7 0
v -0.4 0.1 0.6
v -0.4 0.2 0.6
v 0.1 0.1 0.6
v 0.1 0.2 0.6
v 0.2 0 0.6
v 0.2 0.1 0.6
v 0.5 0 0.6
v 0.5 0.1 0.6
v -0.8 0 0.5
v -0.8 0.1 0.5
v -0.5 0 0.5
v -0.5 0.1 0.5
v -0.5 0.2 0.5
v -0.4 0 0.5
v -0.4 0.1 0.5
v -0.4 0.2 0.5
v -0.4 0.3 0.5
v 0.1 0 0.5
v 0.1 0.1 0.5
v 0.1 0.2 0.5
v 0.1 0.3 0.5
v 0.2 0.1 0.5
v 0.2 0.2 0.5
v -0.6 0.1 0.4
v -0.6 0.2 0.4
v -0.5 0 0.4
v -0.5 0.1 0.4
v -0.5 0.2 0.4
v -0.5 0.3 0.4
v -0.4 0 0.4
v -0.4 0.1 0.4
v -0.4 0.2 0.4
v -0.4 0.3 0.4
v -0.4 0.4 0.4
v 0.1 0 0.4
v 0.1 0.1 0.4
v 0.1 0.2 0.4
v 0.1 0.3 0.4
v 0.1 0.4 0.4
v 0.2 0 0.4
v 0.2 0.1 0.4
v 0.2 0.2 0.4
v 0.2 0.3 0.4
v 0.3 0.1 0.4
v 0.3 0.2 0.4
v -0.7 0.1 0.3
v -0.7 0.2 0.3
v -0.6 0.1 0.3
v -0.6 0.2 0.3
v -0.6 0.3 0.3
v -0.5 0.2 0.3
v -0.5 0.3 0.3
v -0.5 0.4 0.3
v -0.4 0.3 0.3
v -0.4 0.4 0.3
v 0.1 0.3 0.3
v 0.1 0.4 0.3
v 0.2 0.2 0.3
v 0.2 0.3 0.3
v 0.2 0.4 0.3
v 0.3 0.2 0.3
v 0.3 0.3 0.3
v 0.4 0.4 0.3
v 0.4 0.8 0.3
v 0.5 0.6 0.3
v 0.5 0.8 0.3
v 0.5 0.9 0.3
v 0.6 0.6 0.3
v 0.6 0.8 0.3
v 0.6 0.9 0.3
v 0.7 0.4 0.3
v 0.7 0.6 0.3
v 0.2 0.3 0.2
v 0.2 0.4 0.2
v 0.3 0.1 0.2
v 0.3 0.3 0.2
v 0.3 0.4 0.2
v 0.3 0.8 0.2
v 0.4 0.1 0.2
v 0.4 0.2 0.2
v 0.4 0.4 0.2
v 0.4 0.8 0.2
v 0.4 0.9 0.2
v 0.5 0.2 0.2
v 0.5 0.3 0.2
v 0.5 0.8 0.2
v 0.5 0.9 0.2
v 0.6 0.3 0.2
v 0.6 0.4 0.2
v 0.6 0.6 0.2
v 0.6 0.7 0.2
v 0.7 0.5 0.2
v 0.7 0.6 0.2
v 0.8 0.5 0.2
v 0.8 0.7 0.2
v -0.8 0 -0.1
v -0.8 0.1 -0.1
v -0.7 0.1 -0.1
v -0.6 0 -0.1
v -0.6 0.1 -0.1
v 0.3 0 -0.2
v 0.3 0.1 -0.2
v 0.5 0 -0.2
v 0.5 0.1 -0.2
v 0.3 0 0.4
v 0.3 0.1 0.4
v 0.5 0 0.4
v 0.5 0.1 0.4
v -0.8 0 0.3
v -0.8 0.1 0.3
v -0.7 0.1 0.3
v -0.6 0 0.3
v -0.6 0.1 0.3
v 0.2 0.3 0
v 0.2 0.4 0
v 0.3 0.1 0
v 0.3 0.3 0
v 0.3 0.4 0
v 0.3 0.8 0
v 0.4 0.1 0
v 0.4 0.2 0
v 0.4 0.4 0
v 0.4 0.8 0
v 0.4 0.9 0
v 0.5 0.2 0
v 0.5 0.3 0
v 0.5 0.8 0
v 0.5 0.9 0
v 0.6 0.3 0
v 0.6 0.4 0
v 0.6 0.6 0
v 0.6 0.7 0
v 0.7 0.5 0
v 0.7 0.6 0
v 0.8 0.5 0
v 0.8 0.7 0
v -0.7 0.1 -0.1
v -0.7 0.2 -0.1
v -0.6 0.1 -0.1
v -0.6 0.2 -0.1
v -0.6 0.3 -0.1
v -0.5 0.2 -0.1
v -0.5 0.3 -0.1
v -0.5 0.4 -0.1
v -0.4 0.3 -0.1
v -0.4 0.4 -0.1
v 0.1 0.3 -0.1
v 0.1 0.4 -0.1
v 0.2 0.2 -0.1
v 0.2 0.3 -0.1
v 0.2 0.4 -0.1
v 0.3 0.2 -0.1
v 0.3 0.3 -0.1
v 0.4 0.4 -0.1
v 0.4 0.8 -0.1
v 0.5 0.6 -0.1
v 0.5 0.8 -0.1
v 0.5 0.9 -0.1
v 0.6 0.6 -0.1
v 0.6 0.8 -0.1
v 0.6 0.9 -0.1
v 0.7 0.4 -0.1
v 0.7 0.6 -0.1
v -0.6 0.1 -0.2
v -0.6 0.2 -0.2
v -0.5 0 -0.2
v -0.5 0.1 -0.2
v -0.5 0.2 -0.2
v -0.5 0.3 -0.2
v -0.4 0 -0.2
v -0.4 0.1 -0.2
v -0.4 0.2 -0.2
v -0.4 0.3 -0.2
v -0.4 0.4 -0.2
v 0.1 0 -0.2
v 0.1 0.1 -0.2
v 0.1 0.2 -0.2
v 0.1 0.3 -0.2
v 0.1 0.4 -0.2
v 0.2 0 -0.2
v 0.2 0.1 -0.2
v 0.2 0.2 -0.2
v 0.2 0.3 -0.2
v 0.3 0.1 -0.2
v 0.3 0.2 -0.2
v -0.8 0 -0.3
v -0.8 0.1 -0.3
v -0.5 0 -0.3
v -0.5 0.1 -0.3
v -0.5 0.2 -0.3
v -0.4 0 -0.3
v -0.4 0.1 -0.3
v -0.4 0.2 -0.3
v -0.4 0.3 -0.3
v 0.1 0 -0.3
v 0.1 0.1 -0.3
v 0.1 0.2 -0.3
v 0.1 0.3 -0.3
v 0.2 0.1 -0.3
v 0.2 0.2 -0.3
v -0.4 0.1 -0.4
v -0.4 0.2 -0.4
v 0.1 0.1 -0.4
v 0.1 0.2 -0.4
v 0.2 0 -0.4
v 0.2 0.1 -0.4
v 0.5 0 -0.4
v 0.5 0.1 -0.4
v 0.2 0 0.6
v 0.5 0 0.6
v -0.8 0 0.5
v -0.5 0 0.5
v -0.4 0 0.5
v 0.1 0 0.5
v -0.5 0 0.4
v -0.4 0 0.4
v 0.1 0 0.4
v 0.2 0 0.4
v 0.3 0 0.4
v 0.5 0 0.4
v -0.8 0 0.3
v -0.6 0 0.3
v 0.2 0 0.3
v 0.3 0 0.3
v -0.6 0 0.2
v -0.5 0 0.2
v -0.6 0 0
v -0.5 0 0
v -0.8 0 -0.1
v -0.6 0 -0.1
v 0.2 0 -0.1
v 0.3 0 -0.1
v -0.5 0 -0.2
v -0.4 0 -0.2
v 0.1 0 -0.2
v 0.2 0 -0.2
v 0.3 0 -0.2
v 0.5 0 -0.2
v -0.8 0 -0.3
v -0.5 0 -0.3
v -0.4 0 -0.3
v 0.1 0 -0.3
v 0.2 0 -0.4
v 0.5 0 -0.4
v -0.4 0.1 0.6
v 0.1 0.1 0.6
v -0.5 0.1 0.5
v -0.4 0.1 0.5
v 0.1 0.1 0.5
v 0.2 0.1 0.5
v -0.5 0.1 0.4
v -0.4 0.1 0.4
v 0.1 0.1 0.4
v 0.2 0.1 0.4
v -0.7 0.1 0.3
v -0.6 0.1 0.3
v -0.6 0.1 0.2
v 0.3 0.1 0.2
v 0.4 0.1 0.2
v -0.6 0.1 0
v 0.3 0.1 0
v 0.4 0.1 0
v -0.7 0.1 -0.1
v -0.6 0.1 -0.1
v -0.5 0.1 -0.2
v -0.4 0.1 -0.2
v 0.1 0.1 -0.2
v 0.2 0.1 -0.2
v -0.5 0.1 -0.3
v -0.4 0.1 -0.3
v 0.1 0.1 -0.3
v 0.2 0.1 -0.3
v -0.4 0.1 -0.4
v 0.1 0.1 -0.4
v 0.4 0.2 0.2
v 0.5 0.2 0.2
v 0.4 0.2 0
v 0.5 0.2 0
v 0.5 0.3 0.2
v 0.6 0.3 0.2
v 0.5 0.3 0
v 0.6 0.3 0
v 0.4 0.4 0.3
v 0.7 0.4 0.3
v 0.4 0.4 0.2
v 0.6 0.4 0.2
v 0.7 0.4 0.2
v 0.4 0.4 0
v 0.6 0.4 0
v 0.7 0.4 0
v 0.4 0.4 -0.1
v 0.7 0.4 -0.1
v 0.7 0.5 0.2
v 0.8 0.5 0.2
v 0.7 0.5 0
v 0.8 0.5 0
v 0.2 0.1 0.6
v 0.5 0.1 0.6
v -0.8 0.1 0.5
v -0.5 0.1 0.5
v 0.2 0.1 0.5
v -0.6 0.1 0.4
v -0.5 0.1 0.4
v 0.2 0.1 0.4
v 0.3 0.1 0.4
v 0.5 0.1 0.4
v -0.8 0.1 0.3
v -0.7 0.1 0.3
v -0.6 0.1 0.3
v -0.8 0.1 -0.1
v -0.7 0.1 -0.1
v -0.6 0.1 -0.1
v -0.6 0.1 -0.2
v -0.5 0.1 -0.2
v 0.2 0.1 -0.2
v 0.3 0.1 -0.2
v 0.5 0.1 -0.2
v -0.8 0.1 -0.3
v -0.5 0.1 -0.3
v 0.2 0.1 -0.3
v 0.2 0.1 -0.4
v 0.5 0.1 -0.4
v -0.4 0.2 0.6
v 0.1 0.2 0.6
v -0.5 0.2 0.5
v -0.4 0.2 0.5
v 0.1 0.2 0.5
v 0.2 0.2 0.5
v -0.6 0.2 0.4
v -0.5 0.2 0.4
v -0.4 0.2 0.4
v 0.1 0.2 0.4
v 0.2 0.2 0.4
v 0.3 0.2 0.4
v -0.7 0.2 0.3
v -0.6 0.2 0.3
v -0.5 0.2 0.3
v 0.2 0.2 0.3
v 0.3 0.2 0.3
v -0.7 0.2 -0.1
v -0.6 0.2 -0.1
v -0.5 0.2 -0.1
v 0.2 0.2 -0.1
v 0.3 0.2 -0.1
v -0.6 0.2 -0.2
v -0.5 0.2 -0.2
v -0.4 0.2 -0.2
v 0.1 0.2 -0.2
v 0.2 0.2 -0.2
v 0.3 0.2 -0.2
v -0.5 0.2 -0.3
v -0.4 0.2 -0.3
v 0.1 0.2 -0.3
v 0.2 0.2 -0.3
v -0.4 0.2 -0.4
v 0.1 0.2 -0.4
v -0.4 0.3 0.5
v 0.1 0.3 0.5
v -0.5 0.3 0.4
v -0.4 0.3 0.4
v 0.1 0.3 0.4
v 0.2 0.3 0.4
v -0.6 0.3 0.3
v -0.5 0.3 0.3
v -0.4 0.3 0.3
v 0.1 0.3 0.3
v 0.2 0.3 0.3
v 0.3 0.3 0.3
v 0.2 0.3 0.2
v 0.3 0.3 0.2
v 0.2 0.3 0
v 0.3 0.3 0
v -0.6 0.3 -0.1
v -0.5 0.3 -0.1
v -0.4 0.3 -0.1
v 0.1 0.3 -0.1
v 0.2 0.3 -0.1
v 0.3 0.3 -0.1
v -0.5 0.3 -0.2
v -0.4 0.3 -0.2
v 0.1 0.3 -0.2
v 0.2 0.3 -0.2
v -0.4 0.3 -0.3
v 0.1 0.3 -0.3
v -0.4 0.4 0.4
v 0.1 0.4 0.4
v -0.5 0.4 0.3
v -0.4 0.4 0.3
v 0.1 0.4 0.3
v 0.2 0.4 0.3
v 0.2 0.4 0.2
v 0.3 0.4 0.2
v 0.2 0.4 0
v 0.3 0.4 0
v -0.5 0.4 -0.1
v -0.4 0.4 -0.1
v 0.1 0.4 -0.1
v 0.2 0.4 -0.1
v -0.4 0.4 -0.2
v 0.1 0.4 -0.2
v 0.6 0.6 0.3
v 0.7 0.6 0.3
v 0.6 0.6 0.2
v 0.7 0.6 0.2
v 0.6 0.6 0
v 0.7 0.6 0
v 0.6 0.6 -0.1
v 0.7 0.6 -0.1
v 0.6 0.7 0.2
v 0.8 0.7 0.2
v 0.6 0.7 0
v 0.8 0.7 0
v 0.4 0.8 0.3
v 0.5 0.8 0.3
v 0.3 0.8 0.2
v 0.4 0.8 0.2
v 0.5 0.8 0.2
v 0.3 0.8 0
v 0.4 0.8 0
v 0.5 0.8 0
v 0.4 0.8 -0.1
v 0.5 0.8 -0.1
v 0.5 0.9 0.3
v 0.6 0.9 0.3
v 0.4 0.9 0.2
v 0.5 0.9 0.2
v 0.4 0.9 0
v 0.5 0.9 0
v 0.5 0.9 -0.1
v 0.6 0.9 -0.1

# faces
f 5/3/1 2/3/1 1/3/1
f 6/3/1 2/3/1 5/3/1
f 7/3/1 4/3/1 3/3/1
f 8/3/1 4/3/1 7/3/1
f 11/1/1 10/1/1 9/1/1
f 12/1/1 10/1/1 11/1/1
f 18/3/1 14/3/1 13/3/1
f 19/2/1 15/2/1 14/2/1
f 19/3/1 14/3/1 18/3/1
f 20/3/1 16/3/1 15/3/1
f 20/2/1 15/2/1 19/2/1
f 21/3/1 16/3/1 20/3/1
f 23/1/1 18/1/1 17/1/1
f 24/1/1 18/1/1 23/1/1
f 25/1/1 22/1/1 21/1/1
f 26/1/1 22/1/1 25/1/1
f 27/1/1 25/1/1 24/1/1
f 28/1/1 25/1/1 27/1/1
f 33/1/1 30/1/1 29/1/1
f 34/1/1 30/1/1 33/1/1
f 37/1/1 32/1/1 31/1/1
f 38/1/1 32/1/1 37/1/1
f 39/1/1 35/1/1 34/1/1
f 40/1/1 35/1/1 39/1/1
f 41/1/1 37/1/1 36/1/1
f 42/1/1 37/1/1 41/1/1
f 43/1/1 41/1/1 40/1/1
f 44/1/1 41/1/1 43/1/1
f 50/2/1 46/2/1 45/2/1
f 51/2/1 46/2/1 50/2/1
f 52/2/1 48/2/1 47/2/1
f 53/2/1 48/2/1 52/2/1
f 55/1/1 50/1/1 49/1/1
f 56/1/1 50/1/1 55/1/1
f 59/1/1 54/1/1 53/1/1
f 60/1/1 54/1/1 59/1/1
f 61/1/1 57/1/1 56/1/1
f 62/1/1 57/1/1 61/1/1
f 65/1/1 59/1/1 58/1/1
f 66/1/1 59/1/1 65/1/1
f 67/1/1 63/1/1 62/1/1
f 68/1/1 63/1/1 67/1/1
f 69/1/1 65/1/1 64/1/1
f 70/1/1 65/1/1 69/1/1
f 75/3/1 72/3/1 71/3/1
f 76/3/1 72/3/1 75/3/1
f 77/3/1 72/3/1 76/3/1
f 78/3/1 74/3/1 73/3/1
f 79/3/1 74/3/1 78/3/1
f 80/3/1 74/3/1 79/3/1
f 83/2/1 82/2/1 81/2/1
f 84/2/1 82/2/1 83/2/1
f 89/2/1 86/2/1 85/2/1
f 90/2/1 86/2/1 89/2/1
f 91/2/1 88/2/1 87/2/1
f 92/2/1 88/2/1 91/2/1
f 93/2/1 91/2/1 90/2/1
f 94/2/1 91/2/1 93/2/1
f 99/2/1 96/2/1 95/2/1
f 100/2/1 96/2/1 99/2/1
f 101/2/1 98/2/1 97/2/1
f 102/2/1 98/2/1 101/2/1
f 103/3/2 104/3/2 107/3/2
f 107/3/2 104/3/2 108/3/2
f 105/3/2 106/3/2 109/3/2
f 109/3/2 106/3/2 110/3/2
f 111/2/2 112/2/2 116/2/2
f 116/2/2 112/2/2 117/2/2
f 113/2/2 114/2/2 118/2/2
f 118/2/2 114/2/2 119/2/2
f 115/1/2 116/1/2 121/1/2
f 121/1/2 116/1/2 122/1/2
f 119/1/2 120/1/2 125/1/2
f 125/1/2 120/1/2 126/1/2
f 122/1/2 123/1/2 127/1/2
f 127/1/2 123/1/2 128/1/2
f 124/1/2 125/1/2 131/1/2
f 131/1/2 125/1/2 132/1/2
f 128/1/2 129/1/2 133/1/2
f 133/1/2 129/1/2 134/1/2
f 130/1/2 131/1/2 135/1/2
f 135/1/2 131/1/2 136/1/2
f 137/1/2 138/1/2 141/1/2
f 141/1/2 138/1/2 142/1/2
f 139/1/2 140/1/2 145/1/2
f 145/1/2 140/1/2 146/1/2
f 142/1/2 143/1/2 147/1/2
f 147/1/2 143/1/2 148/1/2
f 144/1/2 145/1/2 151/1/2
f 151/1/2 145/1/2 152/1/2
f 148/1/2 149/1/2 153/1/2
f 153/1/2 149/1/2 154/1/2
f 150/1/2 151/1/2 155/1/2
f 155/1/2 151/1/2 156/1/2
f 157/3/2 158/3/2 161/3/2
f 158/2/2 159/2/2 162/2/2
f 161/3/2 158/3/2 162/3/2
f 162/2/2 159/2/2 163/2/2
f 163/2/2 159/2/2 164/2/2
f 159/3/2 160/3/2 165/3/2
f 164/2/2 159/2/2 165/2/2
f 165/3/2 160/3/2 166/3/2
f 161/1/2 162/1/2 167/1/2
f 162/1/2 163/1/2 167/1/2
f 167/1/2 163/1/2 168/1/2
f 165/1/2 166/1/2 169/1/2
f 164/1/2 165/1/2 169/1/2
f 169/1/2 166/1/2 170/1/2
f 168/1/2 163/1/2 171/1/2
f 171/1/2 163/1/2 172/1/2
f 164/1/2 169/1/2 173/1/2
f 173/1/2 169/1/2 174/1/2
f 175/2/2 176/2/2 177/2/2
f 177/2/2 176/2/2 178/2/2
f 179/3/2 180/3/2 183/3/2
f 183/3/2 180/3/2 184/3/2
f 181/3/2 182/3/2 185/3/2
f 185/3/2 182/3/2 186/3/2
f 187/2/2 188/2/2 189/2/2
f 189/2/2 188/2/2 190/2/2
f 191/2/2 192/2/2 193/2/2
f 193/2/2 192/2/2 194/2/2
f 195/6/2 196/6/2 199/6/2
f 197/6/2 198/6/2 200/6/2
f 195/6/2 199/6/2 201/6/2
f 199/2/2 200/2/2 202/2/2
f 201/6/2 199/6/2 202/6/2
f 200/6/2 198/6/2 203/6/2
f 202/2/2 200/2/2 203/2/2
f 203/6/2 198/6/2 204/6/2
f 201/2/2 202/2/2 205/2/2
f 202/2/2 203/2/2 205/2/2
f 203/2/2 204/2/2 205/2/2
f 205/2/2 204/2/2 206/2/2
f 207/2/2 208/2/2 211/2/2
f 208/4/2 209/4/2 211/4/2
f 209/2/2 210/2/2 212/2/2
f 211/4/2 209/4/2 212/4/2
f 207/2/2 211/2/2 213/2/2
f 213/2/2 211/2/2 214/2/2
f 212/2/2 210/2/2 215/2/2
f 215/2/2 210/2/2 216/2/2
f 217/2/2 218/2/2 219/2/2
f 219/2/2 218/2/2 220/2/2
f 223/1/3 222/1/3 221/1/3
f 224/1/3 222/1/3 223/1/3
f 227/3/3 226/3/3 225/3/3
f 228/3/3 226/3/3 227/3/3
f 231/3/3 230/3/3 229/3/3
f 232/3/3 230/3/3 231/3/3
f 235/1/3 233/1/3 232/1/3
f 236/1/3 233/1/3 235/1/3
f 238/2/3 235/2/3 234/2/3
f 239/2/3 235/2/3 238/2/3
f 240/1/3 237/1/3 236/1/3
f 241/1/3 237/1/3 240/1/3
f 242/1/3 240/1/3 239/1/3
f 243/1/3 240/1/3 242/1/3
f 247/1/3 245/1/3 244/1/3
f 248/1/3 245/1/3 247/1/3
f 250/2/3 247/2/3 246/2/3
f 251/2/3 247/2/3 250/2/3
f 252/1/3 249/1/3 248/1/3
f 253/1/3 249/1/3 252/1/3
f 258/1/3 254/1/3 253/1/3
f 259/1/3 254/1/3 258/1/3
f 260/2/3 256/2/3 255/2/3
f 261/2/3 256/2/3 260/2/3
f 262/1/3 258/1/3 257/1/3
f 263/1/3 258/1/3 262/1/3
f 264/1/3 262/1/3 261/1/3
f 265/1/3 262/1/3 264/1/3
f 268/1/3 267/1/3 266/1/3
f 269/1/3 267/1/3 268/1/3
f 271/1/3 270/1/3 269/1/3
f 272/1/3 270/1/3 271/1/3
f 274/1/3 273/1/3 272/1/3
f 275/1/3 273/1/3 274/1/3
f 279/1/3 277/1/3 276/1/3
f 280/1/3 277/1/3 279/1/3
f 281/1/3 279/1/3 278/1/3
f 282/1/3 279/1/3 281/1/3
f 285/2/3 284/2/3 283/2/3
f 286/2/3 284/2/3 285/2/3
f 288/2/3 285/2/3 283/2/3
f 288/6/3 286/6/3 285/6/3
f 289/2/3 287/2/3 286/2/3
f 289/6/3 286/6/3 288/6/3
f 290/2/3 287/2/3 289/2/3
f 291/2/3 288/2/3 283/2/3
f 292/2/3 288/2/3 291/2/3
f 296/1/3 294/1/3 293/1/3
f 297/1/3 294/1/3 296/1/3
f 299/2/3 296/2/3 295/2/3
f 299/2/3 298/2/3 297/2/3
f 299/2/3 297/2/3 296/2/3
f 300/2/3 298/2/3 299/2/3
f 301/2/3 298/2/3 300/2/3
f 302/2/3 298/2/3 301/2/3
f 304/2/3 301/2/3 300/2/3
f 305/2/3 301/2/3 304/2/3
f 306/2/3 303/2/3 302/2/3
f 307/2/3 303/2/3 306/2/3
f 308/2/3 301/2/3 305/2/3
f 309/2/3 301/2/3 308/2/3
f 313/2/3 311/2/3 310/2/3
f 314/2/3 313/2/3 312/2/3
f 315/2/3 311/2/3 313/2/3
f 315/2/3 313/2/3 314/2/3
f 318/3/3 317/3/3 316/3/3
f 319/3/3 318/3/3 316/3/3
f 320/3/3 318/3/3 319/3/3
f 323/3/3 322/3/3 321/3/3
f 324/3/3 322/3/3 323/3/3
f 325/3/4 326/3/4 327/3/4
f 327/3/4 326/3/4 328/3/4
f 329/3/4 330/3/4 331/3/4
f 329/3/4 331/3/4 332/3/4
f 332/3/4 331/3/4 333/3/4
f 334/1/4 335/1/4 337/1/4
f 337/1/4 335/1/4 338/1/4
f 336/2/4 337/2/4 340/2/4
f 338/2/4 339/2/4 340/2/4
f 337/2/4 338/2/4 340/2/4
f 340/2/4 339/2/4 341/2/4
f 341/2/4 339/2/4 342/2/4
f 342/2/4 339/2/4 343/2/4
f 341/2/4 342/2/4 345/2/4
f 345/2/4 342/2/4 346/2/4
f 343/2/4 344/2/4 347/2/4
f 347/2/4 344/2/4 348/2/4
f 346/2/4 342/2/4 349/2/4
f 349/2/4 342/2/4 350/2/4
f 351/2/4 352/2/4 354/2/4
f 353/2/4 354/2/4 355/2/4
f 354/2/4 352/2/4 356/2/4
f 355/2/4 354/2/4 356/2/4
f 357/1/4 358/1/4 359/1/4
f 359/1/4 358/1/4 360/1/4
f 360/1/4 361/1/4 362/1/4
f 362/1/4 361/1/4 363/1/4
f 363/1/4 364/1/4 365/1/4
f 365/1/4 364/1/4 366/1/4
f 367/1/4 368/1/4 370/1/4
f 370/1/4 368/1/4 371/1/4
f 369/1/4 370/1/4 372/1/4
f 372/1/4 370/1/4 373/1/4
f 374/2/4 375/2/4 376/2/4
f 376/2/4 375/2/4 377/2/4
f 374/2/4 376/2/4 379/2/4
f 376/6/4 377/6/4 379/6/4
f 377/2/4 378/2/4 380/2/4
f 379/6/4 377/6/4 380/6/4
f 380/2/4 378/2/4 381/2/4
f 374/2/4 379/2/4 382/2/4
f 382/2/4 379/2/4 383/2/4
f 384/1/4 385/1/4 387/1/4
f 387/1/4 385/1/4 388/1/4
f 386/2/4 387/2/4 390/2/4
f 390/2/4 387/2/4 391/2/4
f 388/1/4 389/1/4 392/1/4
f 392/1/4 389/1/4 393/1/4
f 393/1/4 394/1/4 398/1/4
f 398/1/4 394/1/4 399/1/4
f 395/2/4 396/2/4 400/2/4
f 400/2/4 396/2/4 401/2/4
f 397/1/4 398/1/4 402/1/4
f 402/1/4 398/1/4 403/1/4
f 401/1/4 402/1/4 404/1/4
f 404/1/4 402/1/4 405/1/4
f 406/3/4 407/3/4 408/3/4
f 408/3/4 407/3/4 409/3/4
f 409/1/4 410/1/4 412/1/4
f 412/1/4 410/1/4 413/1/4
f 411/2/4 412/2/4 415/2/4
f 415/2/4 412/2/4 416/2/4
f 413/1/4 414/1/4 417/1/4
f 417/1/4 414/1/4 418/1/4
f 416/1/4 417/1/4 419/1/4
f 419/1/4 417/1/4 420/1/4
f 421/1/4 422/1/4 423/1/4
f 423/1/4 422/1/4 424/1/4
f 425/3/4 426/3/4 427/3/4
f 427/3/4 426/3/4 428/3/4
f 435/3/5 432/3/5 431/3/5
f 436/2/5 434/2/5 433/2/5
f 437/2/5 434/2/5 436/2/5
f 438/3/5 430/3/5 429/3/5
f 439/3/5 430/3/5 438/3/5
f 440/3/5 430/3/5 439/3/5
f 441/3/5 435/3/5 431/3/5
f 442/3/5 435/3/5 441/3/5
f 443/2/5 437/2/5 436/2/5
f 443/2/5 436/2/5 435/2/5
f 443/2/5 438/2/5 437/2/5
f 443/3/5 439/3/5 438/3/5
f 444/3/5 439/3/5 443/3/5
f 445/3/5 435/3/5 442/3/5
f 446/2/5 444/2/5 443/2/5
f 446/3/5 435/3/5 445/3/5
f 446/2/5 443/2/5 435/2/5
f 447/2/5 446/2/5 445/2/5
f 448/2/5 444/2/5 446/2/5
f 448/2/5 446/2/5 447/2/5
f 450/3/5 448/3/5 447/3/5
f 451/2/5 444/2/5 448/2/5
f 452/2/5 444/2/5 451/2/5
f 453/3/5 450/3/5 449/3/5
f 453/3/5 448/3/5 450/3/5
f 453/2/5 451/2/5 448/2/5
f 454/2/5 451/2/5 453/2/5
f 455/2/5 451/2/5 454/2/5
f 456/3/5 452/3/5 451/3/5
f 456/2/5 451/2/5 455/2/5
f 457/3/5 452/3/5 456/3/5
f 459/3/5 453/3/5 449/3/5
f 460/3/5 453/3/5 459/3/5
f 461/2/5 455/2/5 454/2/5
f 462/2/5 455/2/5 461/2/5
f 463/3/5 457/3/5 456/3/5
f 463/3/5 458/3/5 457/3/5
f 464/3/5 458/3/5 463/3/5
f 468/1/5 466/1/5 465/1/5
f 469/1/5 466/1/5 468/1/5
f 471/1/5 468/1/5 467/1/5
f 472/1/5 468/1/5 471/1/5
f 473/1/5 470/1/5 469/1/5
f 474/1/5 470/1/5 473/1/5
f 477/1/5 476/1/5 475/1/5
f 480/1/5 477/1/5 475/1/5
f 481/2/5 479/2/5 478/2/5
f 482/2/5 479/2/5 481/2/5
f 483/1/5 480/1/5 475/1/5
f 484/1/5 480/1/5 483/1/5
f 489/1/5 486/1/5 485/1/5
f 490/1/5 486/1/5 489/1/5
f 491/1/5 488/1/5 487/1/5
f 492/1/5 488/1/5 491/1/5
f 493/1/5 491/1/5 490/1/5
f 494/1/5 491/1/5 493/1/5
f 497/2/5 496/2/5 495/2/5
f 498/2/5 496/2/5 497/2/5
f 501/2/5 500/2/5 499/2/5
f 502/2/5 500/2/5 501/2/5
f 505/2/5 504/2/5 503/2/5
f 506/2/5 504/2/5 505/2/5
f 507/2/5 504/2/5 506/2/5
f 509/4/5 507/4/5 506/4/5
f 510/4/5 507/4/5 509/4/5
f 511/2/5 509/2/5 508/2/5
f 511/2/5 510/2/5 509/2/5
f 512/2/5 510/2/5 511/2/5
f 515/2/5 514/2/5 513/2/5
f 516/2/5 514/2/5 515/2/5
f 517/3/6 518/3/6 521/3/6
f 519/3/6 520/3/6 522/3/6
f 522/3/6 520/3/6 523/3/6
f 521/3/6 518/3/6 524/3/6
f 524/3/6 518/3/6 525/3/6
f 525/3/6 518/3/6 526/3/6
f 519/3/6 522/3/6 527/3/6
f 527/3/6 522/3/6 528/3/6
f 528/3/6 522/3/6 529/3/6
f 530/3/6 531/3/6 533/3/6
f 531/3/6 532/3/6 533/3/6
f 530/3/6 533/3/6 538/3/6
f 533/3/6 534/3/6 538/3/6
f 538/3/6 534/3/6 539/3/6
f 536/3/6 537/3/6 540/3/6
f 535/3/6 536/3/6 540/3/6
f 540/3/6 537/3/6 541/3/6
f 541/3/6 537/3/6 542/3/6
f 543/1/6 544/1/6 546/1/6
f 546/1/6 544/1/6 547/1/6
f 545/1/6 546/1/6 550/1/6
f 550/1/6 546/1/6 551/1/6
f 547/1/6 548/1/6 552/1/6
f 552/1/6 548/1/6 553/1/6
f 549/1/6 550/1/6 556/1/6
f 556/1/6 550/1/6 557/1/6
f 553/1/6 554/1/6 558/1/6
f 558/1/6 554/1/6 559/1/6
f 555/1/6 556/1/6 560/1/6
f 560/1/6 556/1/6 561/1/6
f 561/1/6 562/1/6 565/1/6
f 565/1/6 562/1/6 566/1/6
f 563/1/6 564/1/6 569/1/6
f 569/1/6 564/1/6 570/1/6
f 566/1/6 567/1/6 571/1/6
f 571/1/6 567/1/6 572/1/6
f 568/1/6 569/1/6 573/1/6
f 573/1/6 569/1/6 574/1/6
f 572/1/6 573/1/6 575/1/6
f 575/1/6 573/1/6 576/1/6
f 577/1/6 578/1/6 580/1/6
f 580/1/6 578/1/6 581/1/6
f 579/1/6 580/1/6 584/1/6
f 584/1/6 580/1/6 585/1/6
f 581/1/6 582/1/6 586/1/6
f 586/1/6 582/1/6 587/1/6
f 587/1/6 588/1/6 589/1/6
f 589/1/6 588/1/6 590/1/6
f 583/1/6 584/1/6 593/1/6
f 593/1/6 584/1/6 594/1/6
f 591/1/6 592/1/6 597/1/6
f 597/1/6 592/1/6 598/1/6
f 594/1/6 595/1/6 599/1/6
f 599/1/6 595/1/6 600/1/6
f 596/1/6 597/1/6 601/1/6
f 601/1/6 597/1/6 602/1/6
f 600/1/6 601/1/6 603/1/6
f 603/1/6 601/1/6 604/1/6
f 605/1/6 606/1/6 608/1/6
f 608/1/6 606/1/6 609/1/6
f 607/1/6 608/1/6 611/1/6
f 609/1/6 610/1/6 611/1/6
f 608/1/6 609/1/6 611/1/6
f 607/1/6 611/1/6 613/1/6
f 611/1/6 612/1/6 613/1/6
f 613/1/6 612/1/6 614/1/6
f 607/1/6 613/1/6 615/1/6
f 615/1/6 613/1/6 616/1/6
f 616/1/6 613/1/6 617/1/6
f 617/1/6 613/1/6 618/1/6
f 616/1/6 617/1/6 619/1/6
f 619/1/6 617/1/6 620/1/6
f 621/2/6 622/2/6 623/2/6
f 623/2/6 622/2/6 624/2/6
f 625/2/6 626/2/6 627/2/6
f 627/2/6 626/2/6 628/2/6
f 629/2/6 630/2/6 631/2/6
f 631/2/6 630/2/6 632/2/6
f 633/2/6 634/2/6 636/2/6
f 636/2/6 634/2/6 637/2/6
f 635/2/6 636/2/6 638/2/6
f 638/2/6 636/2/6 639/2/6
f 639/2/6 640/2/6 641/2/6
f 641/2/6 640/2/6 642/2/6
f 643/2/6 644/2/6 646/2/6
f 645/2/6 646/2/6 647/2/6
f 646/2/6 644/2/6 648/2/6
f 647/2/6 646/2/6 648/2/6
f 648/2/6 644/2/6 649/2/6
f 649/2/6 644/2/6 650/2/6
