# MagicaVoxel @ Ephtracy

# group
o 

# material
mtllib Archer.mtl
usemtl palette

# normals
vn -1 0 0
vn 1 0 0
vn 0 0 1
vn 0 0 -1
vn 0 -1 0
vn 0 1 0

# texcoords
vt 0.0332031 0.5
vt 0.302734 0.5
vt 0.333984 0.5
vt 0.369141 0.5
vt 0.373047 0.5
vt 0.587891 0.5
vt 0.841797 0.5
vt 0.958984 0.5
vt 0.974609 0.5
vt 0.978516 0.5
vt 0.994141 0.5

# verts
v -0.6 1.2 0.3
v -0.6 1.2 -0.2
v -0.6 1.3 0.3
v -0.6 1.3 0.1
v -0.6 1.3 0
v -0.6 1.3 -0.2
v -0.6 1.4 0.1
v -0.6 1.4 0
v -0.5 0.5 0.1
v -0.5 0.5 -0.1
v -0.5 0.6 0.2
v -0.5 0.6 0.1
v -0.5 0.8 0
v -0.5 0.8 -0.1
v -0.5 0.9 0.2
v -0.5 0.9 0
v -0.5 1 0.2
v -0.5 1 -0.1
v -0.5 1.2 0.2
v -0.5 1.2 -0.1
v -0.5 1.3 0.2
v -0.5 1.3 0.1
v -0.5 1.3 0
v -0.5 1.3 -0.1
v -0.5 1.4 0.2
v -0.5 1.4 0.1
v -0.5 1.4 0
v -0.5 1.4 -0.1
v -0.5 1.5 0.1
v -0.5 1.5 0
v -0.4 0 0.2
v -0.4 0 0.1
v -0.4 0 0
v -0.4 0 -0.1
v -0.4 0.2 0.2
v -0.4 0.2 0.1
v -0.4 0.2 0
v -0.4 0.2 -0.1
v -0.4 0.4 0.2
v -0.4 0.4 0.1
v -0.4 0.4 0
v -0.4 0.4 -0.1
v -0.4 0.5 0.2
v -0.4 0.5 0.1
v -0.4 0.5 -0.1
v -0.4 0.6 0.2
v -0.4 0.6 0.1
v -0.4 0.8 0.3
v -0.4 0.8 0.2
v -0.4 0.8 0
v -0.4 0.8 -0.1
v -0.4 0.8 -0.2
v -0.4 0.9 0.3
v -0.4 0.9 0.2
v -0.4 0.9 0.1
v -0.4 0.9 0
v -0.4 0.9 -0.2
v -0.4 1 0.1
v -0.4 1 0
v -0.1 0.8 0.2
v -0.1 0.8 0.1
v -0.1 0.8 0
v -0.1 0.8 -0.1
v -0.1 0.9 0.3
v -0.1 0.9 0.2
v -0.1 0.9 0.1
v -0.1 0.9 0
v -0.1 0.9 -0.1
v -0.1 0.9 -0.2
v -0.1 1 0.3
v -0.1 1 0.2
v -0.1 1 -0.1
v -0.1 1 -0.2
v -0.1 1.1 0.3
v -0.1 1.1 0.2
v -0.1 1.1 -0.1
v -0.1 1.1 -0.2
v 0.1 1 0.1
v 0.1 1 0
v 0.1 1.1 0.1
v 0.1 1.1 0
v 0.3 0.9 0.2
v 0.3 0.9 0.1
v 0.3 0.9 0
v 0.3 0.9 -0.1
v 0.3 1 0.2
v 0.3 1 0.1
v 0.3 1 0
v 0.3 1 -0.1
v -0.3 0.1 0.2
v -0.3 0.1 0.1
v -0.3 0.1 0
v -0.3 0.1 -0.1
v -0.3 0.2 0.2
v -0.3 0.2 0.1
v -0.3 0.2 0
v -0.3 0.2 -0.1
v -0.3 0.4 0.2
v -0.3 0.4 0.1
v -0.3 0.4 0
v -0.3 0.4 -0.1
v -0.3 0.5 0.2
v -0.3 0.5 -0.1
v -0.3 0.8 0.2
v -0.3 0.8 -0.1
v -0.3 0.9 0.2
v -0.3 0.9 0.1
v -0.3 0.9 0
v -0.3 0.9 -0.1
v -0.3 1 0.1
v -0.3 1 0
v -0.2 0 0.2
v -0.2 0 0.1
v -0.2 0 0
v -0.2 0 -0.1
v -0.2 0.1 0.2
v -0.2 0.1 0.1
v -0.2 0.1 0
v -0.2 0.1 -0.1
v -0.2 1 0.2
v -0.2 1 -0.1
v -0.2 1.2 0.3
v -0.2 1.2 0.2
v -0.2 1.2 0.1
v -0.2 1.2 0
v -0.2 1.2 -0.1
v -0.2 1.2 -0.2
v -0.2 1.3 0.3
v -0.2 1.3 0.2
v -0.2 1.3 0.1
v -0.2 1.3 0
v -0.2 1.3 -0.1
v -0.2 1.3 -0.2
v -0.2 1.4 0.1
v -0.2 1.4 0
v -0.2 1.5 0.1
v -0.2 1.5 0
v -0.1 0.8 0.3
v -0.1 0.8 0.2
v -0.1 0.8 -0.1
v -0.1 0.8 -0.2
v -0.1 0.9 0.3
v -0.1 0.9 0.2
v -0.1 0.9 -0.1
v -0.1 0.9 -0.2
v -0.1 1.3 0.2
v -0.1 1.3 -0.1
v -0.1 1.4 0.2
v -0.1 1.4 -0.1
v 0 0.8 0.2
v 0 0.8 0.1
v 0 0.8 0
v 0 0.8 -0.1
v 0 0.9 0.2
v 0 0.9 0.1
v 0 0.9 0
v 0 0.9 -0.1
v 0 1 0.3
v 0 1 0.2
v 0 1 0.1
v 0 1 0
v 0 1 -0.1
v 0 1 -0.2
v 0 1.1 0.3
v 0 1.1 0.2
v 0 1.1 -0.1
v 0 1.1 -0.2
v 0.3 0.9 0.3
v 0.3 0.9 0.2
v 0.3 0.9 -0.1
v 0.3 0.9 -0.2
v 0.3 1 0.3
v 0.3 1 0.2
v 0.3 1 -0.1
v 0.3 1 -0.2
v 0.4 0.9 0.2
v 0.4 0.9 0.1
v 0.4 0.9 0
v 0.4 0.9 -0.1
v 0.4 1 0.2
v 0.4 1 0.1
v 0.4 1 0
v 0.4 1 -0.1
v 0.7 1 0.1
v 0.7 1 0
v 0.7 1.1 0.1
v 0.7 1.1 0
v -0.6 1.2 0.3
v -0.6 1.3 0.3
v -0.4 0.8 0.3
v -0.4 0.9 0.3
v -0.3 0.8 0.3
v -0.3 0.9 0.3
v -0.2 1.2 0.3
v -0.2 1.3 0.3
v -0.1 0.8 0.3
v -0.1 0.9 0.3
v -0.1 1 0.3
v -0.1 1.1 0.3
v 0 0.9 0.3
v 0 1 0.3
v 0 1.1 0.3
v 0.3 0.9 0.3
v 0.3 1 0.3
v -0.5 0.6 0.2
v -0.5 0.9 0.2
v -0.5 1 0.2
v -0.5 1.2 0.2
v -0.5 1.3 0.2
v -0.5 1.4 0.2
v -0.4 0 0.2
v -0.4 0.2 0.2
v -0.4 0.4 0.2
v -0.4 0.5 0.2
v -0.4 0.6 0.2
v -0.4 0.8 0.2
v -0.4 0.9 0.2
v -0.3 0.1 0.2
v -0.3 0.2 0.2
v -0.3 0.4 0.2
v -0.3 0.5 0.2
v -0.3 0.8 0.2
v -0.2 0 0.2
v -0.2 0.1 0.2
v -0.2 1 0.2
v -0.2 1.2 0.2
v -0.2 1.3 0.2
v -0.1 0.8 0.2
v -0.1 0.9 0.2
v -0.1 1.3 0.2
v -0.1 1.4 0.2
v 0 0.8 0.2
v 0 0.9 0.2
v 0.3 0.9 0.2
v 0.3 1 0.2
v 0.4 0.9 0.2
v 0.4 1 0.2
v -0.6 1.3 0.1
v -0.6 1.4 0.1
v -0.5 0.5 0.1
v -0.5 0.6 0.1
v -0.5 1.3 0.1
v -0.5 1.4 0.1
v -0.5 1.5 0.1
v -0.4 0.5 0.1
v -0.4 0.6 0.1
v -0.4 0.9 0.1
v -0.4 1 0.1
v -0.3 0.9 0.1
v -0.3 1 0.1
v -0.2 1.4 0.1
v -0.2 1.5 0.1
v 0 0.9 0.1
v 0 1 0.1
v 0.1 1 0.1
v 0.1 1.1 0.1
v 0.2 1 0.1
v 0.2 1.1 0.1
v 0.3 0.9 0.1
v 0.3 1 0.1
v 0.4 1 0.1
v 0.6 1 0.1
v 0.6 1.1 0.1
v 0.7 1 0.1
v 0.7 1.1 0.1
v -0.4 0 0
v -0.4 0.2 0
v -0.4 0.4 0
v -0.3 0.1 0
v -0.3 0.2 0
v -0.3 0.4 0
v -0.2 0 0
v -0.2 0.1 0
v -0.3 0.8 -0.1
v -0.3 0.9 -0.1
v -0.1 0.8 -0.1
v -0.1 0.9 -0.1
v -0.1 1 -0.1
v -0.1 1.1 -0.1
v 0 0.9 -0.1
v 0 1 -0.1
v 0 1.1 -0.1
v 0.3 0.9 -0.1
v 0.3 1 -0.1
v -0.3 0.8 0.2
v -0.3 0.9 0.2
v -0.1 0.8 0.2
v -0.1 0.9 0.2
v -0.1 1 0.2
v -0.1 1.1 0.2
v 0 0.9 0.2
v 0 1 0.2
v 0 1.1 0.2
v 0.3 0.9 0.2
v 0.3 1 0.2
v -0.4 0 0.1
v -0.4 0.2 0.1
v -0.4 0.4 0.1
v -0.3 0.1 0.1
v -0.3 0.2 0.1
v -0.3 0.4 0.1
v -0.2 0 0.1
v -0.2 0.1 0.1
v -0.6 1.3 0
v -0.6 1.4 0
v -0.5 0.8 0
v -0.5 0.9 0
v -0.5 1.3 0
v -0.5 1.4 0
v -0.5 1.5 0
v -0.4 0.8 0
v -0.4 0.9 0
v -0.4 1 0
v -0.3 0.9 0
v -0.3 1 0
v -0.2 1.4 0
v -0.2 1.5 0
v 0 0.9 0
v 0 1 0
v 0.1 1 0
v 0.1 1.1 0
v 0.2 1 0
v 0.2 1.1 0
v 0.3 0.9 0
v 0.3 1 0
v 0.4 1 0
v 0.6 1 0
v 0.6 1.1 0
v 0.7 1 0
v 0.7 1.1 0
v -0.5 0.5 -0.1
v -0.5 0.8 -0.1
v -0.5 1 -0.1
v -0.5 1.2 -0.1
v -0.5 1.3 -0.1
v -0.5 1.4 -0.1
v -0.4 0 -0.1
v -0.4 0.2 -0.1
v -0.4 0.4 -0.1
v -0.4 0.5 -0.1
v -0.4 0.8 -0.1
v -0.3 0.1 -0.1
v -0.3 0.2 -0.1
v -0.3 0.4 -0.1
v -0.3 0.5 -0.1
v -0.3 0.8 -0.1
v -0.2 0 -0.1
v -0.2 0.1 -0.1
v -0.2 1 -0.1
v -0.2 1.2 -0.1
v -0.2 1.3 -0.1
v -0.1 0.8 -0.1
v -0.1 0.9 -0.1
v -0.1 1.3 -0.1
v -0.1 1.4 -0.1
v 0 0.8 -0.1
v 0 0.9 -0.1
v 0.3 0.9 -0.1
v 0.3 1 -0.1
v 0.4 0.9 -0.1
v 0.4 1 -0.1
v -0.6 1.2 -0.2
v -0.6 1.3 -0.2
v -0.4 0.8 -0.2
v -0.4 0.9 -0.2
v -0.3 0.8 -0.2
v -0.3 0.9 -0.2
v -0.2 1.2 -0.2
v -0.2 1.3 -0.2
v -0.1 0.8 -0.2
v -0.1 0.9 -0.2
v -0.1 1 -0.2
v -0.1 1.1 -0.2
v 0 0.9 -0.2
v 0 1 -0.2
v 0 1.1 -0.2
v 0.3 0.9 -0.2
v 0.3 1 -0.2
v -0.4 0 0.2
v -0.2 0 0.2
v -0.4 0 0.1
v -0.2 0 0.1
v -0.4 0 0
v -0.2 0 0
v -0.4 0 -0.1
v -0.2 0 -0.1
v -0.4 0.4 0.1
v -0.3 0.4 0.1
v -0.4 0.4 0
v -0.3 0.4 0
v -0.5 0.5 0.1
v -0.4 0.5 0.1
v -0.5 0.5 -0.1
v -0.4 0.5 -0.1
v -0.5 0.6 0.2
v -0.4 0.6 0.2
v -0.5 0.6 0.1
v -0.4 0.6 0.1
v -0.4 0.8 0.3
v -0.3 0.8 0.3
v -0.1 0.8 0.3
v -0.4 0.8 0.2
v -0.3 0.8 0.2
v -0.1 0.8 0.2
v 0 0.8 0.2
v -0.1 0.8 0.1
v 0 0.8 0.1
v -0.1 0.8 0
v 0 0.8 0
v -0.4 0.8 -0.1
v -0.3 0.8 -0.1
v -0.1 0.8 -0.1
v 0 0.8 -0.1
v -0.4 0.8 -0.2
v -0.3 0.8 -0.2
v -0.1 0.8 -0.2
v -0.1 0.9 0.3
v 0 0.9 0.3
v 0.3 0.9 0.3
v -0.1 0.9 0.2
v 0 0.9 0.2
v 0.3 0.9 0.2
v 0.4 0.9 0.2
v 0 0.9 0.1
v 0.3 0.9 0.1
v 0.4 0.9 0.1
v 0 0.9 0
v 0.3 0.9 0
v 0.4 0.9 0
v -0.1 0.9 -0.1
v 0 0.9 -0.1
v 0.3 0.9 -0.1
v 0.4 0.9 -0.1
v -0.1 0.9 -0.2
v 0 0.9 -0.2
v 0.3 0.9 -0.2
v -0.5 1 0.2
v -0.2 1 0.2
v -0.4 1 0.1
v -0.3 1 0.1
v 0.4 1 0.1
v 0.6 1 0.1
v 0.7 1 0.1
v -0.4 1 0
v -0.3 1 0
v 0.4 1 0
v 0.6 1 0
v 0.7 1 0
v -0.5 1 -0.1
v -0.2 1 -0.1
v -0.6 1.2 0.3
v -0.2 1.2 0.3
v -0.5 1.2 0.2
v -0.2 1.2 0.2
v -0.5 1.2 -0.1
v -0.2 1.2 -0.1
v -0.6 1.2 -0.2
v -0.2 1.2 -0.2
v -0.2 1.3 0.2
v -0.1 1.3 0.2
v -0.2 1.3 0.1
v -0.2 1.3 0
v -0.2 1.3 -0.1
v -0.1 1.3 -0.1
v -0.3 0.1 0.2
v -0.2 0.1 0.2
v -0.3 0.1 0.1
v -0.2 0.1 0.1
v -0.3 0.1 0
v -0.2 0.1 0
v -0.3 0.1 -0.1
v -0.2 0.1 -0.1
v -0.5 0.8 0
v -0.4 0.8 0
v -0.5 0.8 -0.1
v -0.4 0.8 -0.1
v -0.4 0.9 0.3
v -0.3 0.9 0.3
v -0.1 0.9 0.3
v -0.5 0.9 0.2
v -0.4 0.9 0.2
v -0.3 0.9 0.2
v -0.1 0.9 0.2
v -0.4 0.9 0.1
v -0.3 0.9 0.1
v -0.5 0.9 0
v -0.4 0.9 0
v -0.3 0.9 0
v -0.3 0.9 -0.1
v -0.1 0.9 -0.1
v -0.4 0.9 -0.2
v -0.3 0.9 -0.2
v -0.1 0.9 -0.2
v 0 1 0.3
v 0.3 1 0.3
v -0.1 1 0.2
v 0 1 0.2
v 0.3 1 0.2
v 0.4 1 0.2
v 0 1 0.1
v 0.1 1 0.1
v 0.3 1 0.1
v 0.4 1 0.1
v 0 1 0
v 0.1 1 0
v 0.3 1 0
v 0.4 1 0
v -0.1 1 -0.1
v 0 1 -0.1
v 0.3 1 -0.1
v 0.4 1 -0.1
v 0 1 -0.2
v 0.3 1 -0.2
v -0.1 1.1 0.3
v 0 1.1 0.3
v -0.1 1.1 0.2
v 0 1.1 0.2
v 0.1 1.1 0.1
v 0.2 1.1 0.1
v 0.6 1.1 0.1
v 0.7 1.1 0.1
v 0.1 1.1 0
v 0.2 1.1 0
v 0.6 1.1 0
v 0.7 1.1 0
v -0.1 1.1 -0.1
v 0 1.1 -0.1
v -0.1 1.1 -0.2
v 0 1.1 -0.2
v -0.6 1.3 0.3
v -0.2 1.3 0.3
v -0.5 1.3 0.2
v -0.2 1.3 0.2
v -0.6 1.3 0.1
v -0.5 1.3 0.1
v -0.6 1.3 0
v -0.5 1.3 0
v -0.5 1.3 -0.1
v -0.2 1.3 -0.1
v -0.6 1.3 -0.2
v -0.2 1.3 -0.2
v -0.5 1.4 0.2
v -0.1 1.4 0.2
v -0.6 1.4 0.1
v -0.5 1.4 0.1
v -0.2 1.4 0.1
v -0.6 1.4 0
v -0.5 1.4 0
v -0.2 1.4 0
v -0.5 1.4 -0.1
v -0.1 1.4 -0.1
v -0.5 1.5 0.1
v -0.2 1.5 0.1
v -0.5 1.5 0
v -0.2 1.5 0

# faces
f 3/5/1 2/5/1 1/5/1
f 4/5/1 2/5/1 3/5/1
f 5/5/1 2/5/1 4/5/1
f 6/5/1 2/5/1 5/5/1
f 7/5/1 5/5/1 4/5/1
f 8/5/1 5/5/1 7/5/1
f 12/5/1 10/5/1 9/5/1
f 13/5/1 10/5/1 12/5/1
f 13/5/1 12/5/1 11/5/1
f 14/5/1 10/5/1 13/5/1
f 15/5/1 13/5/1 11/5/1
f 16/5/1 13/5/1 15/5/1
f 19/1/1 18/1/1 17/1/1
f 20/1/1 18/1/1 19/1/1
f 25/5/1 22/5/1 21/5/1
f 26/5/1 22/5/1 25/5/1
f 27/5/1 24/5/1 23/5/1
f 28/5/1 24/5/1 27/5/1
f 29/5/1 27/5/1 26/5/1
f 30/5/1 27/5/1 29/5/1
f 35/5/1 32/5/1 31/5/1
f 36/5/1 32/5/1 35/5/1
f 37/5/1 34/5/1 33/5/1
f 38/5/1 34/5/1 37/5/1
f 39/9/1 36/9/1 35/9/1
f 40/9/1 36/9/1 39/9/1
f 41/9/1 38/9/1 37/9/1
f 42/9/1 38/9/1 41/9/1
f 43/10/1 40/10/1 39/10/1
f 43/10/1 41/10/1 40/10/1
f 43/10/1 42/10/1 41/10/1
f 44/10/1 42/10/1 43/10/1
f 45/10/1 42/10/1 44/10/1
f 46/4/1 44/4/1 43/4/1
f 47/4/1 44/4/1 46/4/1
f 53/4/1 49/4/1 48/4/1
f 54/4/1 49/4/1 53/4/1
f 56/4/1 51/4/1 50/4/1
f 56/4/1 52/4/1 51/4/1
f 57/4/1 52/4/1 56/4/1
f 58/1/1 56/1/1 55/1/1
f 59/1/1 56/1/1 58/1/1
f 65/1/1 61/1/1 60/1/1
f 66/2/1 62/2/1 61/2/1
f 66/1/1 61/1/1 65/1/1
f 67/1/1 63/1/1 62/1/1
f 67/2/1 62/2/1 66/2/1
f 68/1/1 63/1/1 67/1/1
f 70/2/1 66/2/1 65/2/1
f 70/2/1 69/2/1 68/2/1
f 70/2/1 68/2/1 67/2/1
f 70/2/1 67/2/1 66/2/1
f 70/2/1 65/2/1 64/2/1
f 71/2/1 69/2/1 70/2/1
f 72/2/1 69/2/1 71/2/1
f 73/2/1 69/2/1 72/2/1
f 74/8/1 71/8/1 70/8/1
f 75/8/1 71/8/1 74/8/1
f 76/8/1 73/8/1 72/8/1
f 77/8/1 73/8/1 76/8/1
f 80/3/1 79/3/1 78/3/1
f 81/3/1 79/3/1 80/3/1
f 86/8/1 83/8/1 82/8/1
f 87/8/1 83/8/1 86/8/1
f 88/8/1 85/8/1 84/8/1
f 89/8/1 85/8/1 88/8/1
f 90/5/2 91/5/2 94/5/2
f 94/5/2 91/5/2 95/5/2
f 92/5/2 93/5/2 96/5/2
f 96/5/2 93/5/2 97/5/2
f 94/9/2 95/9/2 98/9/2
f 98/9/2 95/9/2 99/9/2
f 96/9/2 97/9/2 100/9/2
f 100/9/2 97/9/2 101/9/2
f 98/10/2 99/10/2 102/10/2
f 99/10/2 100/10/2 102/10/2
f 100/10/2 101/10/2 102/10/2
f 102/10/2 101/10/2 103/10/2
f 102/4/2 103/4/2 104/4/2
f 104/4/2 103/4/2 105/4/2
f 104/4/2 105/4/2 106/4/2
f 106/4/2 105/4/2 107/4/2
f 107/4/2 105/4/2 108/4/2
f 108/4/2 105/4/2 109/4/2
f 107/1/2 108/1/2 110/1/2
f 110/1/2 108/1/2 111/1/2
f 112/5/2 113/5/2 116/5/2
f 116/5/2 113/5/2 117/5/2
f 114/5/2 115/5/2 118/5/2
f 118/5/2 115/5/2 119/5/2
f 120/1/2 121/1/2 123/1/2
f 123/1/2 121/1/2 124/1/2
f 124/1/2 121/1/2 125/1/2
f 125/1/2 121/1/2 126/1/2
f 122/5/2 123/5/2 128/5/2
f 123/11/2 124/11/2 129/11/2
f 128/5/2 123/5/2 129/5/2
f 124/1/2 125/1/2 130/1/2
f 129/11/2 124/11/2 130/11/2
f 125/11/2 126/11/2 131/11/2
f 130/1/2 125/1/2 131/1/2
f 126/5/2 127/5/2 132/5/2
f 131/11/2 126/11/2 132/11/2
f 132/5/2 127/5/2 133/5/2
f 134/5/2 135/5/2 136/5/2
f 136/5/2 135/5/2 137/5/2
f 138/1/2 139/1/2 142/1/2
f 142/1/2 139/1/2 143/1/2
f 140/1/2 141/1/2 144/1/2
f 144/1/2 141/1/2 145/1/2
f 146/5/2 147/5/2 148/5/2
f 148/5/2 147/5/2 149/5/2
f 150/1/2 151/1/2 154/1/2
f 151/2/2 152/2/2 155/2/2
f 154/1/2 151/1/2 155/1/2
f 152/1/2 153/1/2 156/1/2
f 155/2/2 152/2/2 156/2/2
f 156/1/2 153/1/2 157/1/2
f 154/2/2 155/2/2 159/2/2
f 159/2/2 155/2/2 160/2/2
f 156/2/2 157/2/2 161/2/2
f 161/2/2 157/2/2 162/2/2
f 158/8/2 159/8/2 164/8/2
f 164/8/2 159/8/2 165/8/2
f 162/8/2 163/8/2 166/8/2
f 166/8/2 163/8/2 167/8/2
f 168/8/2 169/8/2 172/8/2
f 172/8/2 169/8/2 173/8/2
f 170/8/2 171/8/2 174/8/2
f 174/8/2 171/8/2 175/8/2
f 176/8/2 177/8/2 180/8/2
f 177/2/2 178/2/2 181/2/2
f 180/8/2 177/8/2 181/8/2
f 178/8/2 179/8/2 182/8/2
f 181/2/2 178/2/2 182/2/2
f 182/8/2 179/8/2 183/8/2
f 184/7/2 185/7/2 186/7/2
f 186/7/2 185/7/2 187/7/2
f 192/4/3 191/4/3 190/4/3
f 193/4/3 191/4/3 192/4/3
f 194/5/3 189/5/3 188/5/3
f 195/5/3 189/5/3 194/5/3
f 196/1/3 193/1/3 192/1/3
f 197/1/3 193/1/3 196/1/3
f 200/2/3 198/2/3 197/2/3
f 201/8/3 199/8/3 198/8/3
f 201/2/3 198/2/3 200/2/3
f 202/8/3 199/8/3 201/8/3
f 203/8/3 201/8/3 200/8/3
f 204/8/3 201/8/3 203/8/3
f 215/5/3 206/5/3 205/5/3
f 216/5/3 206/5/3 215/5/3
f 217/5/3 206/5/3 216/5/3
f 218/5/3 212/5/3 211/5/3
f 219/9/3 213/9/3 212/9/3
f 219/5/3 212/5/3 218/5/3
f 220/10/3 214/10/3 213/10/3
f 220/9/3 213/9/3 219/9/3
f 221/4/3 215/4/3 214/4/3
f 221/10/3 214/10/3 220/10/3
f 221/4/3 216/4/3 215/4/3
f 222/4/3 216/4/3 221/4/3
f 223/5/3 218/5/3 211/5/3
f 224/5/3 218/5/3 223/5/3
f 225/1/3 208/1/3 207/1/3
f 226/1/3 208/1/3 225/1/3
f 227/5/3 210/5/3 209/5/3
f 230/5/3 210/5/3 227/5/3
f 231/5/3 210/5/3 230/5/3
f 232/1/3 229/1/3 228/1/3
f 233/1/3 229/1/3 232/1/3
f 236/8/3 235/8/3 234/8/3
f 237/8/3 235/8/3 236/8/3
f 242/5/3 239/5/3 238/5/3
f 243/5/3 239/5/3 242/5/3
f 245/5/3 241/5/3 240/5/3
f 246/5/3 241/5/3 245/5/3
f 249/1/3 248/1/3 247/1/3
f 250/1/3 248/1/3 249/1/3
f 251/5/3 244/5/3 243/5/3
f 252/5/3 244/5/3 251/5/3
f 255/2/3 254/2/3 253/2/3
f 257/2/3 255/2/3 253/2/3
f 257/3/3 256/3/3 255/3/3
f 258/3/3 256/3/3 257/3/3
f 259/2/3 257/2/3 253/2/3
f 260/6/3 258/6/3 257/6/3
f 260/2/3 257/2/3 259/2/3
f 261/6/3 258/6/3 260/6/3
f 262/6/3 258/6/3 261/6/3
f 263/6/3 258/6/3 262/6/3
f 264/7/3 263/7/3 262/7/3
f 265/7/3 263/7/3 264/7/3
f 269/5/3 267/5/3 266/5/3
f 270/9/3 268/9/3 267/9/3
f 270/5/3 267/5/3 269/5/3
f 271/9/3 268/9/3 270/9/3
f 272/5/3 269/5/3 266/5/3
f 273/5/3 269/5/3 272/5/3
f 276/1/3 275/1/3 274/1/3
f 277/1/3 275/1/3 276/1/3
f 281/8/3 279/8/3 278/8/3
f 282/8/3 279/8/3 281/8/3
f 283/8/3 281/8/3 280/8/3
f 284/8/3 281/8/3 283/8/3
f 285/1/4 286/1/4 287/1/4
f 287/1/4 286/1/4 288/1/4
f 289/8/4 290/8/4 292/8/4
f 292/8/4 290/8/4 293/8/4
f 291/8/4 292/8/4 294/8/4
f 294/8/4 292/8/4 295/8/4
f 296/5/4 297/5/4 299/5/4
f 297/9/4 298/9/4 300/9/4
f 299/5/4 297/5/4 300/5/4
f 300/9/4 298/9/4 301/9/4
f 296/5/4 299/5/4 302/5/4
f 302/5/4 299/5/4 303/5/4
f 304/5/4 305/5/4 308/5/4
f 308/5/4 305/5/4 309/5/4
f 306/5/4 307/5/4 311/5/4
f 311/5/4 307/5/4 312/5/4
f 312/1/4 313/1/4 314/1/4
f 314/1/4 313/1/4 315/1/4
f 309/5/4 310/5/4 316/5/4
f 316/5/4 310/5/4 317/5/4
f 318/2/4 319/2/4 320/2/4
f 318/2/4 320/2/4 322/2/4
f 320/3/4 321/3/4 322/3/4
f 322/3/4 321/3/4 323/3/4
f 318/2/4 322/2/4 324/2/4
f 322/6/4 323/6/4 325/6/4
f 324/2/4 322/2/4 325/2/4
f 325/6/4 323/6/4 326/6/4
f 326/6/4 323/6/4 327/6/4
f 327/6/4 323/6/4 328/6/4
f 327/7/4 328/7/4 329/7/4
f 329/7/4 328/7/4 330/7/4
f 331/5/4 332/5/4 340/5/4
f 340/5/4 332/5/4 341/5/4
f 337/5/4 338/5/4 342/5/4
f 338/9/4 339/9/4 343/9/4
f 342/5/4 338/5/4 343/5/4
f 339/10/4 340/10/4 344/10/4
f 343/9/4 339/9/4 344/9/4
f 340/4/4 341/4/4 345/4/4
f 344/10/4 340/10/4 345/10/4
f 345/4/4 341/4/4 346/4/4
f 337/5/4 342/5/4 347/5/4
f 347/5/4 342/5/4 348/5/4
f 333/1/4 334/1/4 349/1/4
f 349/1/4 334/1/4 350/1/4
f 335/5/4 336/5/4 351/5/4
f 351/5/4 336/5/4 354/5/4
f 354/5/4 336/5/4 355/5/4
f 352/1/4 353/1/4 356/1/4
f 356/1/4 353/1/4 357/1/4
f 358/8/4 359/8/4 360/8/4
f 360/8/4 359/8/4 361/8/4
f 364/4/4 365/4/4 366/4/4
f 366/4/4 365/4/4 367/4/4
f 362/5/4 363/5/4 368/5/4
f 368/5/4 363/5/4 369/5/4
f 366/1/4 367/1/4 370/1/4
f 370/1/4 367/1/4 371/1/4
f 371/2/4 372/2/4 374/2/4
f 372/8/4 373/8/4 375/8/4
f 374/2/4 372/2/4 375/2/4
f 375/8/4 373/8/4 376/8/4
f 374/8/4 375/8/4 377/8/4
f 377/8/4 375/8/4 378/8/4
f 381/5/5 380/5/5 379/5/5
f 382/5/5 380/5/5 381/5/5
f 385/5/5 384/5/5 383/5/5
f 386/5/5 384/5/5 385/5/5
f 389/10/5 388/10/5 387/10/5
f 390/10/5 388/10/5 389/10/5
f 393/5/5 392/5/5 391/5/5
f 394/5/5 392/5/5 393/5/5
f 397/5/5 396/5/5 395/5/5
f 398/5/5 396/5/5 397/5/5
f 402/4/5 400/4/5 399/4/5
f 403/1/5 401/1/5 400/1/5
f 403/4/5 400/4/5 402/4/5
f 404/1/5 401/1/5 403/1/5
f 406/1/5 405/1/5 404/1/5
f 407/1/5 405/1/5 406/1/5
f 408/2/5 407/2/5 406/2/5
f 409/2/5 407/2/5 408/2/5
f 412/1/5 409/1/5 408/1/5
f 413/1/5 409/1/5 412/1/5
f 414/4/5 411/4/5 410/4/5
f 415/1/5 412/1/5 411/1/5
f 415/4/5 411/4/5 414/4/5
f 416/1/5 412/1/5 415/1/5
f 420/2/5 418/2/5 417/2/5
f 421/8/5 419/8/5 418/8/5
f 421/2/5 418/2/5 420/2/5
f 422/8/5 419/8/5 421/8/5
f 425/8/5 423/8/5 422/8/5
f 426/8/5 423/8/5 425/8/5
f 427/2/5 425/2/5 424/2/5
f 427/2/5 426/2/5 425/2/5
f 428/2/5 426/2/5 427/2/5
f 429/2/5 426/2/5 428/2/5
f 432/8/5 429/8/5 428/8/5
f 433/8/5 429/8/5 432/8/5
f 434/2/5 431/2/5 430/2/5
f 435/8/5 432/8/5 431/8/5
f 435/2/5 431/2/5 434/2/5
f 436/8/5 432/8/5 435/8/5
f 439/1/5 438/1/5 437/1/5
f 440/1/5 438/1/5 439/1/5
f 444/1/5 439/1/5 437/1/5
f 445/1/5 438/1/5 440/1/5
f 446/6/5 442/6/5 441/6/5
f 447/7/5 443/7/5 442/7/5
f 447/6/5 442/6/5 446/6/5
f 448/7/5 443/7/5 447/7/5
f 449/1/5 445/1/5 444/1/5
f 449/1/5 444/1/5 437/1/5
f 450/1/5 438/1/5 445/1/5
f 450/1/5 445/1/5 449/1/5
f 453/5/5 452/5/5 451/5/5
f 454/5/5 452/5/5 453/5/5
f 455/5/5 453/5/5 451/5/5
f 457/5/5 455/5/5 451/5/5
f 457/5/5 456/5/5 455/5/5
f 458/5/5 456/5/5 457/5/5
f 461/5/5 460/5/5 459/5/5
f 462/5/5 460/5/5 461/5/5
f 463/5/5 460/5/5 462/5/5
f 464/5/5 460/5/5 463/5/5
f 465/5/6 466/5/6 467/5/6
f 467/5/6 466/5/6 468/5/6
f 469/5/6 470/5/6 471/5/6
f 471/5/6 470/5/6 472/5/6
f 473/5/6 474/5/6 475/5/6
f 475/5/6 474/5/6 476/5/6
f 477/4/6 478/4/6 481/4/6
f 478/1/6 479/1/6 482/1/6
f 481/4/6 478/4/6 482/4/6
f 482/1/6 479/1/6 483/1/6
f 480/5/6 481/5/6 484/5/6
f 481/4/6 482/4/6 484/4/6
f 484/4/6 482/4/6 485/4/6
f 480/5/6 484/5/6 486/5/6
f 486/5/6 484/5/6 487/5/6
f 487/4/6 488/4/6 489/4/6
f 487/4/6 489/4/6 491/4/6
f 489/1/6 490/1/6 492/1/6
f 491/4/6 489/4/6 492/4/6
f 492/1/6 490/1/6 493/1/6
f 494/8/6 495/8/6 497/8/6
f 497/8/6 495/8/6 498/8/6
f 496/2/6 497/2/6 500/2/6
f 498/8/6 499/8/6 502/8/6
f 502/8/6 499/8/6 503/8/6
f 500/2/6 501/2/6 504/2/6
f 496/2/6 500/2/6 504/2/6
f 504/2/6 501/2/6 505/2/6
f 496/2/6 504/2/6 508/2/6
f 508/2/6 504/2/6 509/2/6
f 506/8/6 507/8/6 510/8/6
f 510/8/6 507/8/6 511/8/6
f 509/8/6 510/8/6 512/8/6
f 512/8/6 510/8/6 513/8/6
f 514/8/6 515/8/6 516/8/6
f 516/8/6 515/8/6 517/8/6
f 518/3/6 519/3/6 522/3/6
f 519/6/6 520/6/6 523/6/6
f 522/3/6 519/3/6 523/3/6
f 520/7/6 521/7/6 524/7/6
f 523/6/6 520/6/6 524/6/6
f 524/7/6 521/7/6 525/7/6
f 526/8/6 527/8/6 528/8/6
f 528/8/6 527/8/6 529/8/6
f 530/5/6 531/5/6 532/5/6
f 532/5/6 531/5/6 533/5/6
f 530/5/6 532/5/6 534/5/6
f 534/5/6 532/5/6 535/5/6
f 536/5/6 537/5/6 538/5/6
f 536/5/6 538/5/6 540/5/6
f 538/5/6 539/5/6 540/5/6
f 540/5/6 539/5/6 541/5/6
f 542/5/6 543/5/6 545/5/6
f 545/5/6 543/5/6 546/5/6
f 544/5/6 545/5/6 547/5/6
f 547/5/6 545/5/6 548/5/6
f 546/5/6 543/5/6 549/5/6
f 548/5/6 549/5/6 550/5/6
f 549/5/6 543/5/6 551/5/6
f 550/5/6 549/5/6 551/5/6
f 552/5/6 553/5/6 554/5/6
f 554/5/6 553/5/6 555/5/6
