# MagicaVoxel @ Ephtracy

# group
o 

# material
mtllib Tree.mtl
usemtl palette

# normals
vn -1 0 0
vn 1 0 0
vn 0 0 1
vn 0 0 -1
vn 0 -1 0
vn 0 1 0

# texcoords
vt 0.310547 0.5
vt 0.583984 0.5

# verts
v -0.2 0.7 0.1
v -0.2 0.7 -0.1
v -0.2 0.9 -0.1
v -0.2 0.9 -0.2
v -0.2 1 0.1
v -0.2 1 0
v -0.2 1.2 0
v -0.2 1.2 -0.2
v -0.1 0.6 0.1
v -0.1 0.6 -0.2
v -0.1 0.7 0.1
v -0.1 0.7 -0.1
v -0.1 0.8 -0.2
v -0.1 0.8 -0.3
v -0.1 0.9 -0.1
v -0.1 0.9 -0.2
v -0.1 1 0.1
v -0.1 1 0
v -0.1 1.2 0
v -0.1 1.2 -0.2
v -0.1 1.2 -0.3
v -0.1 1.3 0.1
v -0.1 1.3 0
v -0.1 1.3 -0.1
v -0.1 1.3 -0.2
v -0.1 1.4 0
v -0.1 1.4 -0.1
v 0 0 0
v 0 0 -0.2
v 0 0.6 0
v 0 0.6 -0.2
v 0 0.6 -0.3
v 0 0.8 0.2
v 0 0.8 0.1
v 0 0.8 -0.2
v 0 0.8 -0.3
v 0 0.8 -0.4
v 0 1.1 0.2
v 0 1.1 0.1
v 0 1.1 -0.3
v 0 1.1 -0.4
v 0 1.3 0.1
v 0 1.3 0
v 0 1.4 0.1
v 0 1.4 0
v 0.1 1.2 -0.2
v 0.1 1.2 -0.3
v 0.1 1.3 -0.2
v 0.1 1.3 -0.3
v 0.2 0.8 -0.3
v 0.2 0.8 -0.4
v 0.2 0.9 -0.3
v 0.2 0.9 -0.4
v 0.1 0.6 0.1
v 0.1 0.6 0
v 0.1 0.6 -0.2
v 0.1 0.6 -0.3
v 0.1 0.7 0.1
v 0.1 0.7 0
v 0.1 0.7 -0.2
v 0.1 0.7 -0.3
v 0.1 0.8 -0.3
v 0.1 0.8 -0.4
v 0.1 0.9 -0.3
v 0.1 0.9 -0.4
v 0.2 0 0
v 0.2 0 -0.2
v 0.2 0.7 0
v 0.2 0.7 -0.2
v 0.2 1.3 0.1
v 0.2 1.3 -0.1
v 0.2 1.4 0.1
v 0.2 1.4 -0.1
v 0.3 0.7 0.1
v 0.3 0.7 -0.3
v 0.3 0.8 0.2
v 0.3 0.8 0.1
v 0.3 0.8 -0.1
v 0.3 0.8 -0.3
v 0.3 0.8 -0.4
v 0.3 0.9 0.1
v 0.3 0.9 -0.1
v 0.3 1.1 0.2
v 0.3 1.1 0.1
v 0.3 1.1 -0.2
v 0.3 1.1 -0.3
v 0.3 1.1 -0.4
v 0.3 1.2 0.1
v 0.3 1.2 -0.2
v 0.3 1.3 0.1
v 0.3 1.3 -0.3
v 0.4 0.8 -0.1
v 0.4 0.8 -0.3
v 0.4 0.9 0.1
v 0.4 0.9 -0.1
v 0.4 1.1 -0.2
v 0.4 1.1 -0.3
v 0.4 1.2 0.1
v 0.4 1.2 -0.2
v 0 0.8 0.2
v 0 1.1 0.2
v 0.3 0.8 0.2
v 0.3 1.1 0.2
v -0.2 0.7 0.1
v -0.2 1 0.1
v -0.1 0.6 0.1
v -0.1 0.7 0.1
v -0.1 1 0.1
v -0.1 1.3 0.1
v 0 0.8 0.1
v 0 1.1 0.1
v 0 1.3 0.1
v 0 1.4 0.1
v 0.1 0.6 0.1
v 0.1 0.7 0.1
v 0.2 1.3 0.1
v 0.2 1.4 0.1
v 0.3 0.7 0.1
v 0.3 0.8 0.1
v 0.3 0.9 0.1
v 0.3 1.1 0.1
v 0.3 1.2 0.1
v 0.3 1.3 0.1
v 0.4 0.9 0.1
v 0.4 1.2 0.1
v -0.2 1 0
v -0.2 1.2 0
v -0.1 1 0
v -0.1 1.2 0
v -0.1 1.3 0
v -0.1 1.4 0
v 0 0 0
v 0 0.6 0
v 0 1.3 0
v 0 1.4 0
v 0.1 0.6 0
v 0.1 0.7 0
v 0.2 0 0
v 0.2 0.7 0
v 0.3 0.8 -0.1
v 0.3 0.9 -0.1
v 0.4 0.8 -0.1
v 0.4 0.9 -0.1
v -0.2 0.7 -0.1
v -0.2 0.9 -0.1
v -0.1 0.7 -0.1
v -0.1 0.9 -0.1
v -0.1 1.3 -0.1
v -0.1 1.4 -0.1
v 0.2 1.3 -0.1
v 0.2 1.4 -0.1
v -0.2 0.9 -0.2
v -0.2 1.2 -0.2
v -0.1 0.6 -0.2
v -0.1 0.8 -0.2
v -0.1 0.9 -0.2
v -0.1 1.2 -0.2
v -0.1 1.3 -0.2
v 0 0 -0.2
v 0 0.6 -0.2
v 0 0.8 -0.2
v 0.1 0.6 -0.2
v 0.1 0.7 -0.2
v 0.1 1.2 -0.2
v 0.1 1.3 -0.2
v 0.2 0 -0.2
v 0.2 0.7 -0.2
v 0.3 1.1 -0.2
v 0.3 1.2 -0.2
v 0.4 1.1 -0.2
v 0.4 1.2 -0.2
v -0.1 0.8 -0.3
v -0.1 1.2 -0.3
v 0 0.6 -0.3
v 0 0.8 -0.3
v 0 1.1 -0.3
v 0.1 0.6 -0.3
v 0.1 0.7 -0.3
v 0.1 0.8 -0.3
v 0.1 0.9 -0.3
v 0.1 1.2 -0.3
v 0.1 1.3 -0.3
v 0.2 0.8 -0.3
v 0.2 0.9 -0.3
v 0.3 0.7 -0.3
v 0.3 0.8 -0.3
v 0.3 1.1 -0.3
v 0.3 1.3 -0.3
v 0.4 0.8 -0.3
v 0.4 1.1 -0.3
v 0 0.8 -0.4
v 0 1.1 -0.4
v 0.1 0.8 -0.4
v 0.1 0.9 -0.4
v 0.2 0.8 -0.4
v 0.2 0.9 -0.4
v 0.3 0.8 -0.4
v 0.3 1.1 -0.4
v 0 0 0
v 0.2 0 0
v 0 0 -0.2
v 0.2 0 -0.2
v -0.1 0.6 0.1
v 0.1 0.6 0.1
v 0 0.6 0
v 0.1 0.6 0
v -0.1 0.6 -0.2
v 0 0.6 -0.2
v 0.1 0.6 -0.2
v 0 0.6 -0.3
v 0.1 0.6 -0.3
v -0.2 0.7 0.1
v -0.1 0.7 0.1
v 0.1 0.7 0.1
v 0.3 0.7 0.1
v 0.1 0.7 0
v 0.2 0.7 0
v -0.2 0.7 -0.1
v -0.1 0.7 -0.1
v 0.1 0.7 -0.2
v 0.2 0.7 -0.2
v 0.1 0.7 -0.3
v 0.3 0.7 -0.3
v 0 0.8 0.2
v 0.3 0.8 0.2
v 0 0.8 0.1
v 0.3 0.8 0.1
v 0.3 0.8 -0.1
v 0.4 0.8 -0.1
v -0.1 0.8 -0.2
v 0 0.8 -0.2
v -0.1 0.8 -0.3
v 0 0.8 -0.3
v 0.1 0.8 -0.3
v 0.2 0.8 -0.3
v 0.3 0.8 -0.3
v 0.4 0.8 -0.3
v 0 0.8 -0.4
v 0.1 0.8 -0.4
v 0.2 0.8 -0.4
v 0.3 0.8 -0.4
v 0.3 0.9 0.1
v 0.4 0.9 0.1
v -0.2 0.9 -0.1
v -0.1 0.9 -0.1
v 0.3 0.9 -0.1
v 0.4 0.9 -0.1
v -0.2 0.9 -0.2
v -0.1 0.9 -0.2
v 0.1 0.9 -0.3
v 0.2 0.9 -0.3
v 0.1 0.9 -0.4
v 0.2 0.9 -0.4
v -0.2 1 0.1
v -0.1 1 0.1
v -0.2 1 0
v -0.1 1 0
v 0 1.1 0.2
v 0.3 1.1 0.2
v 0 1.1 0.1
v 0.3 1.1 0.1
v 0.3 1.1 -0.2
v 0.4 1.1 -0.2
v 0 1.1 -0.3
v 0.3 1.1 -0.3
v 0.4 1.1 -0.3
v 0 1.1 -0.4
v 0.3 1.1 -0.4
v 0.3 1.2 0.1
v 0.4 1.2 0.1
v -0.2 1.2 0
v -0.1 1.2 0
v -0.2 1.2 -0.2
v -0.1 1.2 -0.2
v 0.1 1.2 -0.2
v 0.3 1.2 -0.2
v 0.4 1.2 -0.2
v -0.1 1.2 -0.3
v 0.1 1.2 -0.3
v -0.1 1.3 0.1
v 0 1.3 0.1
v 0.2 1.3 0.1
v 0.3 1.3 0.1
v -0.1 1.3 0
v 0 1.3 0
v -0.1 1.3 -0.1
v 0.2 1.3 -0.1
v -0.1 1.3 -0.2
v 0.1 1.3 -0.2
v 0.1 1.3 -0.3
v 0.3 1.3 -0.3
v 0 1.4 0.1
v 0.2 1.4 0.1
v -0.1 1.4 0
v 0 1.4 0
v -0.1 1.4 -0.1
v 0.2 1.4 -0.1

# faces
f 3/2/1 2/2/1 1/2/1
f 5/2/1 3/2/1 1/2/1
f 5/2/1 4/2/1 3/2/1
f 6/2/1 4/2/1 5/2/1
f 7/2/1 4/2/1 6/2/1
f 8/2/1 4/2/1 7/2/1
f 11/2/1 10/2/1 9/2/1
f 12/2/1 10/2/1 11/2/1
f 13/2/1 10/2/1 12/2/1
f 15/2/1 13/2/1 12/2/1
f 15/2/1 14/2/1 13/2/1
f 16/2/1 14/2/1 15/2/1
f 19/2/1 18/2/1 17/2/1
f 20/2/1 14/2/1 16/2/1
f 21/2/1 14/2/1 20/2/1
f 22/2/1 19/2/1 17/2/1
f 22/2/1 20/2/1 19/2/1
f 23/2/1 20/2/1 22/2/1
f 24/2/1 20/2/1 23/2/1
f 25/2/1 20/2/1 24/2/1
f 26/2/1 24/2/1 23/2/1
f 27/2/1 24/2/1 26/2/1
f 30/1/1 29/1/1 28/1/1
f 31/1/1 29/1/1 30/1/1
f 35/2/1 32/2/1 31/2/1
f 36/2/1 32/2/1 35/2/1
f 38/2/1 34/2/1 33/2/1
f 39/2/1 34/2/1 38/2/1
f 40/2/1 37/2/1 36/2/1
f 41/2/1 37/2/1 40/2/1
f 44/2/1 43/2/1 42/2/1
f 45/2/1 43/2/1 44/2/1
f 48/2/1 47/2/1 46/2/1
f 49/2/1 47/2/1 48/2/1
f 52/2/1 51/2/1 50/2/1
f 53/2/1 51/2/1 52/2/1
f 54/2/2 55/2/2 58/2/2
f 58/2/2 55/2/2 59/2/2
f 56/2/2 57/2/2 60/2/2
f 60/2/2 57/2/2 61/2/2
f 62/2/2 63/2/2 64/2/2
f 64/2/2 63/2/2 65/2/2
f 66/1/2 67/1/2 68/1/2
f 68/1/2 67/1/2 69/1/2
f 70/2/2 71/2/2 72/2/2
f 72/2/2 71/2/2 73/2/2
f 74/2/2 75/2/2 77/2/2
f 77/2/2 75/2/2 78/2/2
f 78/2/2 75/2/2 79/2/2
f 76/2/2 77/2/2 81/2/2
f 77/2/2 78/2/2 81/2/2
f 81/2/2 78/2/2 82/2/2
f 76/2/2 81/2/2 83/2/2
f 83/2/2 81/2/2 84/2/2
f 79/2/2 80/2/2 86/2/2
f 86/2/2 80/2/2 87/2/2
f 85/2/2 86/2/2 89/2/2
f 88/2/2 89/2/2 90/2/2
f 89/2/2 86/2/2 91/2/2
f 90/2/2 89/2/2 91/2/2
f 92/2/2 93/2/2 95/2/2
f 95/2/2 93/2/2 96/2/2
f 94/2/2 95/2/2 96/2/2
f 96/2/2 93/2/2 97/2/2
f 94/2/2 96/2/2 98/2/2
f 98/2/2 96/2/2 99/2/2
f 102/2/3 101/2/3 100/2/3
f 103/2/3 101/2/3 102/2/3
f 107/2/3 105/2/3 104/2/3
f 108/2/3 105/2/3 107/2/3
f 110/2/3 107/2/3 106/2/3
f 110/2/3 109/2/3 108/2/3
f 110/2/3 108/2/3 107/2/3
f 111/2/3 109/2/3 110/2/3
f 112/2/3 109/2/3 111/2/3
f 114/2/3 110/2/3 106/2/3
f 115/2/3 110/2/3 114/2/3
f 116/2/3 113/2/3 112/2/3
f 116/2/3 112/2/3 111/2/3
f 117/2/3 113/2/3 116/2/3
f 118/2/3 110/2/3 115/2/3
f 119/2/3 110/2/3 118/2/3
f 121/2/3 116/2/3 111/2/3
f 122/2/3 116/2/3 121/2/3
f 123/2/3 116/2/3 122/2/3
f 124/2/3 121/2/3 120/2/3
f 124/2/3 122/2/3 121/2/3
f 125/2/3 122/2/3 124/2/3
f 128/2/3 127/2/3 126/2/3
f 129/2/3 127/2/3 128/2/3
f 134/2/3 131/2/3 130/2/3
f 135/2/3 131/2/3 134/2/3
f 136/1/3 133/1/3 132/1/3
f 138/1/3 136/1/3 132/1/3
f 138/1/3 137/1/3 136/1/3
f 139/1/3 137/1/3 138/1/3
f 142/2/3 141/2/3 140/2/3
f 143/2/3 141/2/3 142/2/3
f 144/2/4 145/2/4 146/2/4
f 146/2/4 145/2/4 147/2/4
f 148/2/4 149/2/4 150/2/4
f 150/2/4 149/2/4 151/2/4
f 152/2/4 153/2/4 156/2/4
f 156/2/4 153/2/4 157/2/4
f 154/2/4 155/2/4 160/2/4
f 160/2/4 155/2/4 161/2/4
f 159/1/4 160/1/4 162/1/4
f 157/2/4 158/2/4 164/2/4
f 164/2/4 158/2/4 165/2/4
f 162/1/4 163/1/4 166/1/4
f 159/1/4 162/1/4 166/1/4
f 166/1/4 163/1/4 167/1/4
f 168/2/4 169/2/4 170/2/4
f 170/2/4 169/2/4 171/2/4
f 172/2/4 173/2/4 175/2/4
f 175/2/4 173/2/4 176/2/4
f 174/2/4 175/2/4 177/2/4
f 177/2/4 175/2/4 178/2/4
f 178/2/4 175/2/4 179/2/4
f 176/2/4 173/2/4 181/2/4
f 179/2/4 180/2/4 183/2/4
f 178/2/4 179/2/4 183/2/4
f 183/2/4 180/2/4 184/2/4
f 178/2/4 183/2/4 185/2/4
f 185/2/4 183/2/4 186/2/4
f 181/2/4 182/2/4 187/2/4
f 176/2/4 181/2/4 187/2/4
f 187/2/4 182/2/4 188/2/4
f 186/2/4 187/2/4 189/2/4
f 189/2/4 187/2/4 190/2/4
f 191/2/4 192/2/4 193/2/4
f 193/2/4 192/2/4 194/2/4
f 194/2/4 192/2/4 196/2/4
f 195/2/4 196/2/4 197/2/4
f 196/2/4 192/2/4 198/2/4
f 197/2/4 196/2/4 198/2/4
f 201/1/5 200/1/5 199/1/5
f 202/1/5 200/1/5 201/1/5
f 205/2/5 204/2/5 203/2/5
f 206/2/5 204/2/5 205/2/5
f 207/2/5 205/2/5 203/2/5
f 208/2/5 205/2/5 207/2/5
f 210/2/5 209/2/5 208/2/5
f 211/2/5 209/2/5 210/2/5
f 216/2/5 215/2/5 214/2/5
f 217/2/5 215/2/5 216/2/5
f 218/2/5 213/2/5 212/2/5
f 219/2/5 213/2/5 218/2/5
f 221/2/5 215/2/5 217/2/5
f 222/2/5 221/2/5 220/2/5
f 223/2/5 215/2/5 221/2/5
f 223/2/5 221/2/5 222/2/5
f 226/2/5 225/2/5 224/2/5
f 227/2/5 225/2/5 226/2/5
f 232/2/5 231/2/5 230/2/5
f 233/2/5 231/2/5 232/2/5
f 236/2/5 229/2/5 228/2/5
f 237/2/5 229/2/5 236/2/5
f 238/2/5 234/2/5 233/2/5
f 239/2/5 234/2/5 238/2/5
f 240/2/5 236/2/5 235/2/5
f 241/2/5 236/2/5 240/2/5
f 246/2/5 243/2/5 242/2/5
f 247/2/5 243/2/5 246/2/5
f 248/2/5 245/2/5 244/2/5
f 249/2/5 245/2/5 248/2/5
f 252/2/5 251/2/5 250/2/5
f 253/2/5 251/2/5 252/2/5
f 254/2/6 255/2/6 256/2/6
f 256/2/6 255/2/6 257/2/6
f 258/2/6 259/2/6 260/2/6
f 260/2/6 259/2/6 261/2/6
f 262/2/6 263/2/6 265/2/6
f 265/2/6 263/2/6 266/2/6
f 264/2/6 265/2/6 267/2/6
f 267/2/6 265/2/6 268/2/6
f 271/2/6 272/2/6 273/2/6
f 273/2/6 272/2/6 274/2/6
f 269/2/6 270/2/6 276/2/6
f 276/2/6 270/2/6 277/2/6
f 274/2/6 275/2/6 278/2/6
f 278/2/6 275/2/6 279/2/6
f 280/2/6 281/2/6 284/2/6
f 284/2/6 281/2/6 285/2/6
f 282/2/6 283/2/6 287/2/6
f 286/2/6 287/2/6 288/2/6
f 288/2/6 287/2/6 289/2/6
f 289/2/6 287/2/6 290/2/6
f 287/2/6 283/2/6 291/2/6
f 290/2/6 287/2/6 291/2/6
f 292/2/6 293/2/6 295/2/6
f 294/2/6 295/2/6 296/2/6
f 295/2/6 293/2/6 297/2/6
f 296/2/6 295/2/6 297/2/6
